<svg width="128" height="128" viewBox="0 0 128 128" fill="none" xmlns="http://www.w3.org/2000/svg">
  <rect width="128" height="128" rx="24" fill="white"/>
  <g stroke="#121821" stroke-width="6" stroke-linecap="round" stroke-linejoin="round">
    <path d="M30 31V21"/>
    <path d="M30 31H40"/>
    <path d="M30 31C41 20 56 14 72 14C101 14 124 37 124 66"/>
    <path d="M68 99C39 101 15 79 15 50C15 29 27 12 46 4"/>
    <path d="M12 46L10 52"/>
    <path d="M9 59L9 65"/>
    <path d="M10 72L12 78"/>
    <path d="M15 84L19 89"/>
    <path d="M23 95L28 99"/>
    <path d="M34 104L40 107"/>
    <path d="M47 110L55 112"/>
    <circle cx="64" cy="64" r="36"/>
    <path d="M64 42V63L74 73"/>
  </g>
  <g transform="translate(78 68)">
    <circle cx="20" cy="20" r="19" fill="white" stroke="#46AF8B" stroke-width="6"/>
    <path d="M20 6L30 12V24L20 30L10 24V12L20 6Z" stroke="#46AF8B" stroke-width="6" stroke-linecap="round" stroke-linejoin="round"/>
    <path d="M12 12L20 16L28 12" stroke="#46AF8B" stroke-width="6" stroke-linecap="round" stroke-linejoin="round"/>
  </g>
</svg>
